<!-- icon666.com - MILLIONS vector ICONS FREE --><svg enable-background="new 0 0 32 32" viewBox="0 0 32 32" xmlns="http://www.w3.org/2000/svg"><g id="Cart"><path d="m22.503 5.32-.182 5.073-4.07.001-.181-5.074zm-.253 7.074-3.927.001.193 5.384h3.541zm2.073-2.001 3.632-.001.781-3.874c.059-.293-.017-.598-.206-.83s-.473-.367-.772-.368h-3.254zm-8.073.003-.181-5.076h-4.555l.886 5.077zm8.001 1.997-.193 5.386h1.547c.476 0 .928-.336 1.022-.802l.924-4.585zm-7.929.003-3.573.001.939 5.382h2.827zm9.673 7.286h-13.944l-2.656-16.367c-.01-.061-.062-.105-.124-.105h-4.449c-.901 0-1.634.729-1.634 1.626 0 .896.733 1.625 1.634 1.625h1.492l2.628 16.383c.01.061.062.105.124.105h16.929c.886 0 1.607-.733 1.607-1.635.001-.9-.721-1.632-1.607-1.632zm-10.423 7.222c0 1.522-1.239 2.761-2.762 2.761-1.522 0-2.761-1.238-2.761-2.761s1.238-2.761 2.761-2.761c1.523.001 2.762 1.239 2.762 2.761zm9.611 0c0 1.522-1.238 2.761-2.761 2.761s-2.762-1.238-2.762-2.761 1.239-2.761 2.762-2.761c1.522.001 2.761 1.239 2.761 2.761z" fill="#000000" style="fill: rgb(255, 255, 255);"></path></g></svg>